<svg width="136" height="50" viewBox="0 0 136 50" fill="none" xmlns="http://www.w3.org/2000/svg">
<path d="M33.266 1.87377L45.5366 23.127C46.2057 24.2863 46.2057 25.7144 45.5366 26.8736L33.266 48.1269C32.5968 49.2861 31.36 50.0001 30.0215 50.0001H37.2123C38.5508 50.0001 39.7876 49.2861 40.4568 48.1269L52.7274 26.8736C53.3965 25.7144 53.3965 24.2863 52.7274 23.127L40.4568 1.87377C39.7876 0.714544 38.5506 0.000488281 37.2123 0.000488281H30.0215C31.36 0.000488281 32.5968 0.714544 33.266 1.87377Z" fill="#39435A"/>
<path d="M33.266 1.87377L33.8127 2.82078C34.742 2.83436 35.7073 2.9107 36.6924 3.05552C38.6527 3.34389 40.4599 3.86951 42.0038 4.55371L40.4565 1.87377C39.7876 0.714544 38.5508 0.000488281 37.2123 0.000488281H30.0215C31.36 0.000488281 32.5968 0.714544 33.266 1.87377Z" fill="#2C374C"/>
<path d="M19.4237 1.87377L31.6943 23.127C32.3635 24.2863 32.3635 25.7144 31.6943 26.8736L19.4237 48.1269C18.7546 49.2861 17.5177 50.0001 16.1792 50.0001H23.37C24.7085 50.0001 25.9454 49.2861 26.6145 48.1269L38.8851 26.8736C39.5542 25.7144 39.5542 24.2863 38.8851 23.127L26.6145 1.87377C25.9452 0.714544 24.7084 0.000488281 23.3698 0.000488281H16.1792C17.5176 0.000488281 18.7544 0.714544 19.4237 1.87377Z" fill="#39435A"/>
<path d="M19.9632 48.1264L7.69268 26.8731C7.0235 25.7139 7.0235 24.2858 7.69268 23.1265L19.9632 1.87328C20.6324 0.714055 21.8692 0 23.2077 0H16.017C14.6784 0 13.4416 0.714055 12.7724 1.87328L0.501886 23.1265C-0.167295 24.2858 -0.167295 25.7139 0.501886 26.8731L12.7724 48.1264C13.4416 49.2856 14.6784 49.9996 16.017 49.9996H23.2077C21.8692 49.9996 20.6324 49.2856 19.9632 48.1264Z" fill="#435F94"/>
<path d="M27.0526 48.1265L14.782 26.8732C14.1129 25.714 14.1129 24.2859 14.782 23.1267L27.0526 1.87341C27.7218 0.714544 28.9586 0.000488281 30.2971 0.000488281H23.1063C21.7678 0.000488281 20.531 0.714544 19.8618 1.87377L7.59124 23.127C6.92206 24.2863 6.92206 25.7144 7.59124 26.8736L19.8618 48.1269C20.531 49.2861 21.7678 50.0001 23.1063 50.0001H30.2971C28.9586 49.9998 27.7218 49.2857 27.0526 48.1265Z" fill="#377DFF"/>
<path d="M34.2789 48.1265L22.0084 26.8732C21.3392 25.714 21.3392 24.2859 22.0084 23.1267L34.2789 1.87341C34.9481 0.714544 36.1849 0.000488281 37.5234 0.000488281H30.3326C28.9941 0.000488281 27.7573 0.714544 27.0881 1.87377L14.8176 23.127C14.1484 24.2863 14.1484 25.7144 14.8176 26.8736L27.0881 48.1269C27.7573 49.2861 28.9941 50.0001 30.3326 50.0001H37.5234C36.1849 49.9998 34.9481 49.2857 34.2789 48.1265Z" fill="#37DBFF"/>
<path d="M66.94 20C66.5667 20 66.2333 19.8867 65.94 19.66C65.6467 19.42 65.5 19.1267 65.5 18.78V7.22C65.5 6.87333 65.6133 6.58667 65.84 6.36C66.08 6.12 66.3733 6 66.72 6H72.48C73.1733 6 73.82 6.18667 74.42 6.56C75.0333 6.92 75.5267 7.42667 75.9 8.08C76.2733 8.72 76.46 9.46 76.46 10.3C76.46 10.8067 76.3533 11.3 76.14 11.78C75.94 12.26 75.66 12.6933 75.3 13.08C74.9533 13.4667 74.56 13.7667 74.12 13.98L74.14 13.52C74.5133 13.72 74.82 13.96 75.06 14.24C75.3133 14.5067 75.5067 14.8 75.64 15.12C75.7867 15.4267 75.8733 15.76 75.9 16.12C75.9533 16.4533 75.9867 16.7467 76 17C76.0267 17.2533 76.0667 17.4667 76.12 17.64C76.1867 17.8133 76.3067 17.9467 76.48 18.04C76.7733 18.2133 76.9533 18.4667 77.02 18.8C77.1 19.12 77.0267 19.4067 76.8 19.66C76.6533 19.8333 76.4667 19.9467 76.24 20C76.0133 20.04 75.7867 20.04 75.56 20C75.3333 19.9467 75.1467 19.88 75 19.8C74.7733 19.6667 74.5467 19.4733 74.32 19.22C74.0933 18.9533 73.9067 18.6 73.76 18.16C73.6267 17.72 73.56 17.1533 73.56 16.46C73.56 16.2333 73.52 16.0267 73.44 15.84C73.36 15.64 73.2467 15.4733 73.1 15.34C72.9533 15.1933 72.7667 15.0867 72.54 15.02C72.3133 14.94 72.0467 14.9 71.74 14.9H67.7L68 14.44V18.78C68 19.1267 67.9067 19.42 67.72 19.66C67.5333 19.8867 67.2733 20 66.94 20ZM67.72 12.84H72.38C72.62 12.84 72.8533 12.7333 73.08 12.52C73.3067 12.2933 73.4933 11.9933 73.64 11.62C73.7867 11.2333 73.86 10.8133 73.86 10.36C73.86 9.77333 73.7 9.28667 73.38 8.9C73.0733 8.5 72.74 8.3 72.38 8.3H67.76L68 7.66V13.32L67.72 12.84ZM88.0686 9.1C88.4153 9.1 88.7019 9.21333 88.9286 9.44C89.1553 9.66667 89.2686 9.96 89.2686 10.32V18.78C89.2686 19.1267 89.1553 19.42 88.9286 19.66C88.7019 19.8867 88.4153 20 88.0686 20C87.7219 20 87.4353 19.8867 87.2086 19.66C86.9819 19.42 86.8686 19.1267 86.8686 18.78V17.8L87.3086 17.98C87.3086 18.1533 87.2153 18.3667 87.0286 18.62C86.8419 18.86 86.5886 19.1 86.2686 19.34C85.9486 19.58 85.5686 19.7867 85.1286 19.96C84.7019 20.12 84.2353 20.2 83.7286 20.2C82.8086 20.2 81.9753 19.9667 81.2286 19.5C80.4819 19.02 79.8886 18.3667 79.4486 17.54C79.0219 16.7 78.8086 15.74 78.8086 14.66C78.8086 13.5667 79.0219 12.6067 79.4486 11.78C79.8886 10.94 80.4753 10.2867 81.2086 9.82C81.9419 9.34 82.7553 9.1 83.6486 9.1C84.2219 9.1 84.7486 9.18667 85.2286 9.36C85.7086 9.53333 86.1219 9.75333 86.4686 10.02C86.8286 10.2867 87.1019 10.56 87.2886 10.84C87.4886 11.1067 87.5886 11.3333 87.5886 11.52L86.8686 11.78V10.32C86.8686 9.97333 86.9819 9.68667 87.2086 9.46C87.4353 9.22 87.7219 9.1 88.0686 9.1ZM84.0286 18C84.6153 18 85.1286 17.8533 85.5686 17.56C86.0086 17.2667 86.3486 16.8667 86.5886 16.36C86.8419 15.8533 86.9686 15.2867 86.9686 14.66C86.9686 14.02 86.8419 13.4467 86.5886 12.94C86.3486 12.4333 86.0086 12.0333 85.5686 11.74C85.1286 11.4467 84.6153 11.3 84.0286 11.3C83.4553 11.3 82.9486 11.4467 82.5086 11.74C82.0686 12.0333 81.7219 12.4333 81.4686 12.94C81.2286 13.4467 81.1086 14.02 81.1086 14.66C81.1086 15.2867 81.2286 15.8533 81.4686 16.36C81.7219 16.8667 82.0686 17.2667 82.5086 17.56C82.9486 17.8533 83.4553 18 84.0286 18ZM97.6872 9.1C98.7539 9.1 99.5405 9.36 100.047 9.88C100.554 10.3867 100.887 11.0467 101.047 11.86L100.707 11.68L100.867 11.36C101.027 11.0533 101.274 10.7267 101.607 10.38C101.941 10.02 102.341 9.72 102.807 9.48C103.287 9.22667 103.821 9.1 104.407 9.1C105.367 9.1 106.094 9.30667 106.587 9.72C107.094 10.1333 107.441 10.6867 107.627 11.38C107.814 12.06 107.907 12.82 107.907 13.66V18.78C107.907 19.1267 107.794 19.42 107.567 19.66C107.341 19.8867 107.054 20 106.707 20C106.361 20 106.074 19.8867 105.847 19.66C105.621 19.42 105.507 19.1267 105.507 18.78V13.66C105.507 13.22 105.454 12.8267 105.347 12.48C105.241 12.12 105.047 11.8333 104.767 11.62C104.487 11.4067 104.087 11.3 103.567 11.3C103.061 11.3 102.627 11.4067 102.267 11.62C101.907 11.8333 101.634 12.12 101.447 12.48C101.274 12.8267 101.187 13.22 101.187 13.66V18.78C101.187 19.1267 101.074 19.42 100.847 19.66C100.621 19.8867 100.334 20 99.9872 20C99.6405 20 99.3539 19.8867 99.1272 19.66C98.9005 19.42 98.7872 19.1267 98.7872 18.78V13.66C98.7872 13.22 98.7339 12.8267 98.6272 12.48C98.5205 12.12 98.3272 11.8333 98.0472 11.62C97.7672 11.4067 97.3672 11.3 96.8472 11.3C96.3405 11.3 95.9072 11.4067 95.5472 11.62C95.1872 11.8333 94.9139 12.12 94.7272 12.48C94.5539 12.8267 94.4672 13.22 94.4672 13.66V18.78C94.4672 19.1267 94.3539 19.42 94.1272 19.66C93.9005 19.8867 93.6139 20 93.2672 20C92.9205 20 92.6339 19.8867 92.4072 19.66C92.1805 19.42 92.0672 19.1267 92.0672 18.78V10.52C92.0672 10.1733 92.1805 9.88667 92.4072 9.66C92.6339 9.42 92.9205 9.3 93.2672 9.3C93.6139 9.3 93.9005 9.42 94.1272 9.66C94.3539 9.88667 94.4672 10.1733 94.4672 10.52V11.38L94.1672 11.32C94.2872 11.0933 94.4539 10.8533 94.6672 10.6C94.8805 10.3333 95.1405 10.0867 95.4472 9.86C95.7539 9.63333 96.0939 9.45333 96.4672 9.32C96.8405 9.17333 97.2472 9.1 97.6872 9.1ZM119.465 9.1C119.811 9.1 120.098 9.21333 120.325 9.44C120.551 9.66667 120.665 9.96 120.665 10.32V18.78C120.665 19.1267 120.551 19.42 120.325 19.66C120.098 19.8867 119.811 20 119.465 20C119.118 20 118.831 19.8867 118.605 19.66C118.378 19.42 118.265 19.1267 118.265 18.78V17.8L118.705 17.98C118.705 18.1533 118.611 18.3667 118.425 18.62C118.238 18.86 117.985 19.1 117.665 19.34C117.345 19.58 116.965 19.7867 116.525 19.96C116.098 20.12 115.631 20.2 115.125 20.2C114.205 20.2 113.371 19.9667 112.625 19.5C111.878 19.02 111.285 18.3667 110.845 17.54C110.418 16.7 110.205 15.74 110.205 14.66C110.205 13.5667 110.418 12.6067 110.845 11.78C111.285 10.94 111.871 10.2867 112.605 9.82C113.338 9.34 114.151 9.1 115.045 9.1C115.618 9.1 116.145 9.18667 116.625 9.36C117.105 9.53333 117.518 9.75333 117.865 10.02C118.225 10.2867 118.498 10.56 118.685 10.84C118.885 11.1067 118.985 11.3333 118.985 11.52L118.265 11.78V10.32C118.265 9.97333 118.378 9.68667 118.605 9.46C118.831 9.22 119.118 9.1 119.465 9.1ZM115.425 18C116.011 18 116.525 17.8533 116.965 17.56C117.405 17.2667 117.745 16.8667 117.985 16.36C118.238 15.8533 118.365 15.2867 118.365 14.66C118.365 14.02 118.238 13.4467 117.985 12.94C117.745 12.4333 117.405 12.0333 116.965 11.74C116.525 11.4467 116.011 11.3 115.425 11.3C114.851 11.3 114.345 11.4467 113.905 11.74C113.465 12.0333 113.118 12.4333 112.865 12.94C112.625 13.4467 112.505 14.02 112.505 14.66C112.505 15.2867 112.625 15.8533 112.865 16.36C113.118 16.8667 113.465 17.2667 113.905 17.56C114.345 17.8533 114.851 18 115.425 18Z" fill="#E2E2E2"/>
<path d="M73.68 33.632C73.808 33.7173 73.8827 33.8293 73.904 33.968C73.9253 34.096 73.8933 34.224 73.808 34.352C73.7333 34.448 73.6373 34.5013 73.52 34.512C73.4027 34.5227 73.2907 34.5013 73.184 34.448C72.7787 34.1813 72.3413 33.9733 71.872 33.824C71.4133 33.6747 70.9173 33.6 70.384 33.6C69.7333 33.6 69.1253 33.7173 68.56 33.952C68.0053 34.176 67.52 34.5067 67.104 34.944C66.688 35.3707 66.3627 35.8773 66.128 36.464C65.904 37.0507 65.792 37.696 65.792 38.4C65.792 39.1253 65.9093 39.7867 66.144 40.384C66.3787 40.9707 66.704 41.4773 67.12 41.904C67.5467 42.3307 68.0373 42.656 68.592 42.88C69.1467 43.104 69.744 43.216 70.384 43.216C70.9067 43.216 71.3973 43.1413 71.856 42.992C72.3253 42.8427 72.7627 42.64 73.168 42.384C73.2747 42.32 73.3867 42.2987 73.504 42.32C73.632 42.3307 73.7333 42.3893 73.808 42.496C73.904 42.6133 73.936 42.7413 73.904 42.88C73.8827 43.008 73.8133 43.1093 73.696 43.184C73.4293 43.3547 73.1147 43.5147 72.752 43.664C72.3893 43.8133 72.0053 43.9307 71.6 44.016C71.1947 44.112 70.7893 44.16 70.384 44.16C69.616 44.16 68.896 44.0213 68.224 43.744C67.552 43.4667 66.9547 43.0773 66.432 42.576C65.9093 42.064 65.4987 41.456 65.2 40.752C64.912 40.048 64.768 39.264 64.768 38.4C64.768 37.568 64.912 36.8053 65.2 36.112C65.488 35.408 65.888 34.8 66.4 34.288C66.912 33.776 67.5093 33.376 68.192 33.088C68.8747 32.8 69.6053 32.656 70.384 32.656C70.992 32.656 71.5787 32.7413 72.144 32.912C72.7093 33.0827 73.2213 33.3227 73.68 33.632ZM76.3571 44C76.2078 44 76.0905 43.952 76.0051 43.856C75.9198 43.76 75.8771 43.648 75.8771 43.52V36.352C75.8771 36.224 75.9198 36.112 76.0051 36.016C76.1011 35.92 76.2185 35.872 76.3571 35.872C76.4958 35.872 76.6078 35.92 76.6931 36.016C76.7891 36.112 76.8371 36.224 76.8371 36.352V38.752L76.5971 38.8C76.6291 38.4267 76.7198 38.0587 76.8691 37.696C77.0291 37.3227 77.2425 36.9813 77.5091 36.672C77.7758 36.3627 78.0905 36.112 78.4531 35.92C78.8265 35.728 79.2425 35.632 79.7011 35.632C79.8931 35.632 80.0798 35.6747 80.2611 35.76C80.4425 35.8347 80.5331 35.9627 80.5331 36.144C80.5331 36.304 80.4905 36.4267 80.4051 36.512C80.3198 36.5973 80.2185 36.64 80.1011 36.64C80.0051 36.64 79.8985 36.6133 79.7811 36.56C79.6745 36.5067 79.5305 36.48 79.3491 36.48C79.0505 36.48 78.7518 36.5707 78.4531 36.752C78.1545 36.9227 77.8825 37.1573 77.6371 37.456C77.3918 37.7547 77.1945 38.0907 77.0451 38.464C76.9065 38.8267 76.8371 39.1947 76.8371 39.568V43.52C76.8371 43.648 76.7891 43.76 76.6931 43.856C76.5971 43.952 76.4851 44 76.3571 44ZM85.53 44.16C84.7087 44.16 83.9833 43.984 83.354 43.632C82.7247 43.28 82.234 42.7893 81.882 42.16C81.53 41.5307 81.354 40.7947 81.354 39.952C81.354 39.0453 81.53 38.272 81.882 37.632C82.2447 36.992 82.7087 36.5013 83.274 36.16C83.85 35.808 84.458 35.632 85.098 35.632C85.5673 35.632 86.0207 35.7173 86.458 35.888C86.906 36.048 87.3007 36.2933 87.642 36.624C87.994 36.944 88.2713 37.3387 88.474 37.808C88.6873 38.2773 88.8047 38.8213 88.826 39.44C88.8153 39.568 88.762 39.68 88.666 39.776C88.57 39.8613 88.458 39.904 88.33 39.904H81.914L81.722 39.04H88.026L87.818 39.232V38.912C87.7753 38.4107 87.6153 37.984 87.338 37.632C87.0607 37.28 86.7247 37.0133 86.33 36.832C85.9353 36.6507 85.5247 36.56 85.098 36.56C84.778 36.56 84.4473 36.624 84.106 36.752C83.7753 36.88 83.4713 37.0827 83.194 37.36C82.9273 37.6267 82.7087 37.9733 82.538 38.4C82.3673 38.816 82.282 39.312 82.282 39.888C82.282 40.5173 82.41 41.088 82.666 41.6C82.922 42.112 83.29 42.5173 83.77 42.816C84.2607 43.1147 84.842 43.264 85.514 43.264C85.8873 43.264 86.2233 43.2107 86.522 43.104C86.8207 42.9973 87.082 42.8587 87.306 42.688C87.53 42.5067 87.7167 42.32 87.866 42.128C87.9833 42.032 88.1007 41.984 88.218 41.984C88.3247 41.984 88.4153 42.0267 88.49 42.112C88.5753 42.1973 88.618 42.2933 88.618 42.4C88.618 42.528 88.5647 42.64 88.458 42.736C88.138 43.12 87.722 43.456 87.21 43.744C86.698 44.0213 86.138 44.16 85.53 44.16ZM97.8074 35.824C97.946 35.824 98.058 35.872 98.1434 35.968C98.2394 36.064 98.2874 36.1813 98.2874 36.32V43.52C98.2874 43.648 98.2394 43.76 98.1434 43.856C98.0474 43.952 97.9354 44 97.8074 44C97.6687 44 97.5514 43.952 97.4554 43.856C97.37 43.76 97.3274 43.648 97.3274 43.52V41.616L97.5994 41.488C97.5994 41.7867 97.514 42.0907 97.3434 42.4C97.1834 42.7093 96.9594 42.9973 96.6714 43.264C96.3834 43.5307 96.042 43.7493 95.6474 43.92C95.2634 44.08 94.8474 44.16 94.3994 44.16C93.674 44.16 93.0234 43.9733 92.4474 43.6C91.882 43.2267 91.434 42.7147 91.1034 42.064C90.7834 41.4133 90.6234 40.6827 90.6234 39.872C90.6234 39.04 90.7887 38.3093 91.1194 37.68C91.45 37.04 91.898 36.5387 92.4634 36.176C93.0287 35.8133 93.6687 35.632 94.3834 35.632C94.842 35.632 95.2687 35.712 95.6634 35.872C96.0687 36.032 96.4207 36.2507 96.7194 36.528C97.018 36.8053 97.2474 37.1253 97.4074 37.488C97.578 37.84 97.6634 38.208 97.6634 38.592L97.3274 38.352V36.32C97.3274 36.1813 97.37 36.064 97.4554 35.968C97.5514 35.872 97.6687 35.824 97.8074 35.824ZM94.4794 43.264C95.0447 43.264 95.546 43.12 95.9834 42.832C96.4207 42.5333 96.762 42.128 97.0074 41.616C97.2634 41.0933 97.3914 40.512 97.3914 39.872C97.3914 39.2427 97.2634 38.6773 97.0074 38.176C96.762 37.6747 96.4207 37.2747 95.9834 36.976C95.546 36.6773 95.0447 36.528 94.4794 36.528C93.9247 36.528 93.4234 36.672 92.9754 36.96C92.538 37.248 92.1914 37.6427 91.9354 38.144C91.69 38.6453 91.5674 39.2213 91.5674 39.872C91.5674 40.512 91.69 41.0933 91.9354 41.616C92.1914 42.128 92.538 42.5333 92.9754 42.832C93.4127 43.12 93.914 43.264 94.4794 43.264ZM100.438 35.856H104.166C104.294 35.856 104.401 35.904 104.486 36C104.572 36.0853 104.614 36.192 104.614 36.32C104.614 36.4373 104.572 36.5387 104.486 36.624C104.401 36.7093 104.294 36.752 104.166 36.752H100.438C100.31 36.752 100.198 36.7093 100.102 36.624C100.017 36.528 99.9745 36.4213 99.9745 36.304C99.9745 36.176 100.017 36.0693 100.102 35.984C100.198 35.8987 100.31 35.856 100.438 35.856ZM102.086 33.6C102.225 33.6 102.337 33.648 102.422 33.744C102.518 33.84 102.566 33.952 102.566 34.08V42.112C102.566 42.4107 102.604 42.6347 102.678 42.784C102.764 42.9333 102.87 43.0347 102.998 43.088C103.126 43.1307 103.254 43.152 103.382 43.152C103.468 43.152 103.542 43.1413 103.606 43.12C103.681 43.088 103.761 43.072 103.846 43.072C103.942 43.072 104.022 43.1093 104.086 43.184C104.161 43.2587 104.198 43.3547 104.198 43.472C104.198 43.6213 104.113 43.7493 103.942 43.856C103.772 43.952 103.569 44 103.334 44C103.238 44 103.094 43.9947 102.902 43.984C102.71 43.9627 102.513 43.904 102.31 43.808C102.108 43.7013 101.937 43.52 101.798 43.264C101.67 43.008 101.606 42.64 101.606 42.16V34.08C101.606 33.952 101.649 33.84 101.734 33.744C101.83 33.648 101.948 33.6 102.086 33.6ZM107.476 43.52C107.476 43.648 107.428 43.76 107.332 43.856C107.236 43.952 107.124 44 106.996 44C106.858 44 106.74 43.952 106.644 43.856C106.559 43.76 106.516 43.648 106.516 43.52V36.16C106.516 36.032 106.559 35.92 106.644 35.824C106.74 35.728 106.858 35.68 106.996 35.68C107.135 35.68 107.247 35.728 107.332 35.824C107.428 35.92 107.476 36.032 107.476 36.16V43.52ZM106.996 34.608C106.772 34.608 106.602 34.56 106.484 34.464C106.378 34.3573 106.324 34.208 106.324 34.016V33.856C106.324 33.664 106.383 33.52 106.5 33.424C106.628 33.3173 106.799 33.264 107.012 33.264C107.215 33.264 107.37 33.3173 107.476 33.424C107.594 33.52 107.652 33.664 107.652 33.856V34.016C107.652 34.208 107.594 34.3573 107.476 34.464C107.37 34.56 107.21 34.608 106.996 34.608ZM109.938 35.648C110.024 35.648 110.109 35.6747 110.194 35.728C110.28 35.7813 110.344 35.8613 110.386 35.968L113.186 42.624L112.978 42.752L115.842 35.968C115.928 35.7547 116.082 35.6533 116.306 35.664C116.413 35.664 116.514 35.7013 116.61 35.776C116.706 35.84 116.754 35.936 116.754 36.064C116.754 36.128 116.744 36.1813 116.722 36.224C116.712 36.256 116.701 36.2933 116.69 36.336L113.554 43.696C113.469 43.888 113.325 43.9893 113.122 44C113.026 44.0107 112.93 43.9893 112.834 43.936C112.749 43.872 112.685 43.792 112.642 43.696L109.49 36.336C109.48 36.3147 109.469 36.2827 109.458 36.24C109.448 36.1973 109.442 36.1547 109.442 36.112C109.442 35.9947 109.485 35.888 109.57 35.792C109.656 35.696 109.778 35.648 109.938 35.648ZM122.377 44.16C121.556 44.16 120.83 43.984 120.201 43.632C119.572 43.28 119.081 42.7893 118.729 42.16C118.377 41.5307 118.201 40.7947 118.201 39.952C118.201 39.0453 118.377 38.272 118.729 37.632C119.092 36.992 119.556 36.5013 120.121 36.16C120.697 35.808 121.305 35.632 121.945 35.632C122.414 35.632 122.868 35.7173 123.305 35.888C123.753 36.048 124.148 36.2933 124.489 36.624C124.841 36.944 125.118 37.3387 125.321 37.808C125.534 38.2773 125.652 38.8213 125.673 39.44C125.662 39.568 125.609 39.68 125.513 39.776C125.417 39.8613 125.305 39.904 125.177 39.904H118.761L118.569 39.04H124.873L124.665 39.232V38.912C124.622 38.4107 124.462 37.984 124.185 37.632C123.908 37.28 123.572 37.0133 123.177 36.832C122.782 36.6507 122.372 36.56 121.945 36.56C121.625 36.56 121.294 36.624 120.953 36.752C120.622 36.88 120.318 37.0827 120.041 37.36C119.774 37.6267 119.556 37.9733 119.385 38.4C119.214 38.816 119.129 39.312 119.129 39.888C119.129 40.5173 119.257 41.088 119.513 41.6C119.769 42.112 120.137 42.5173 120.617 42.816C121.108 43.1147 121.689 43.264 122.361 43.264C122.734 43.264 123.07 43.2107 123.369 43.104C123.668 42.9973 123.929 42.8587 124.153 42.688C124.377 42.5067 124.564 42.32 124.713 42.128C124.83 42.032 124.948 41.984 125.065 41.984C125.172 41.984 125.262 42.0267 125.337 42.112C125.422 42.1973 125.465 42.2933 125.465 42.4C125.465 42.528 125.412 42.64 125.305 42.736C124.985 43.12 124.569 43.456 124.057 43.744C123.545 44.0213 122.985 44.16 122.377 44.16Z" fill="#E2E2E2"/>
</svg>
